<svg width="1512" height="882" viewBox="0 0 1512 882" fill="none" xmlns="http://www.w3.org/2000/svg">
<path d="M-19.1421 145.558C-46.738 176.143 -56.0856 236.031 -56.9425 252.535C-57.7995 269.038 -49.253 320.51 -19.1421 328.489C7.68199 335.597 27.67 316.819 40.0469 289.204C50.939 264.903 52.2193 231.394 76.196 219.762C111.368 202.698 136.263 267.176 171.534 250.317C207.223 233.258 217.832 193.458 206.889 155.478C191.15 100.857 124.084 90.7889 67.4567 96.3529C32.5002 99.7877 4.37421 119.495 -19.1421 145.558Z" fill="#355146" fill-opacity="0.1"/>
<path d="M70.6849 386.902C50.0638 416.055 32.6029 431.316 -0.815056 443.902C-21.3933 451.652 -38.6384 440.322 -56.3151 453.402C-92.1875 479.944 -59.0568 529.948 -31.3151 564.902C-0.743393 603.421 39.5902 633.518 84.6849 613.902C114.272 601.031 134.441 581.143 135.685 548.902C136.625 524.534 108.977 516.258 110.185 491.902C112.307 449.113 180.185 467.902 200.685 429.902C213.664 405.843 215.439 382.915 200.685 359.902C181.194 329.5 142.71 325.208 110.185 340.902C88.8593 351.191 85.1849 366.402 70.6849 386.902Z" fill="#5F4565" fill-opacity="0.1"/>
<path d="M9.58 811.309C21.9589 783.721 37.6722 770.046 60.58 750.309C78.5103 734.86 91.2157 724.87 111.58 712.809C149.465 690.371 182.734 662.485 220.08 685.809C234.882 695.053 243.052 703.431 249.08 719.809C258.394 745.111 235.832 760.376 234.58 787.309C232.981 821.716 257.451 840.897 249.08 874.309C235.784 927.382 190.804 950.511 136.58 957.809C94.1961 963.513 60.5776 960.79 30.58 930.309C-2.52109 896.675 -9.73903 854.364 9.58 811.309Z" fill="#703E33" fill-opacity="0.1"/>
<path d="M1635.67 257.629C1663.69 239.75 1685.07 153.943 1641.08 87.2673C1588.61 7.76286 1518.98 36.7691 1427.71 64.0467C1344.45 88.9344 1181.39 107.934 1235.4 176.024C1266.76 215.569 1345.39 172.764 1379.01 210.418C1405.92 240.571 1362.87 281.193 1389.3 311.781C1429.94 358.835 1472.89 376.344 1532.4 358.341C1583.13 342.996 1573.49 297.299 1635.67 257.629Z" fill="#5F4565" fill-opacity="0.1"/>
<path d="M335.626 907.646C312.562 892.816 336.013 861.071 353.126 839.646C378.073 808.413 412.16 812.902 452.126 813.646C489.455 814.34 563.584 807.782 544.126 839.646C530.801 861.467 505.662 850.427 481.626 859.146C438.831 874.669 416.882 911.221 371.626 916.146C356.097 917.836 348.765 916.094 335.626 907.646Z" fill="#355146" fill-opacity="0.1"/>
<path d="M1450.96 494.621C1452.04 522.02 1412.58 521.019 1385.22 519.29C1345.33 516.77 1329.45 486.273 1307.13 453.109C1286.29 422.133 1238.4 365.174 1275.66 362.835C1301.18 361.234 1306.56 388.158 1327.48 402.846C1364.75 428.997 1407.28 426.01 1437.27 460.256C1447.56 472.008 1450.34 479.012 1450.96 494.621Z" fill="#355146" fill-opacity="0.1"/>
<path d="M1385.78 643.114C1436.57 614.103 1496.76 629.924 1531.52 676.884C1577.45 738.915 1470.48 778.997 1429.11 844.285C1391.43 903.757 1407.13 998.832 1336.92 994.982C1260.76 990.805 1091.08 866.951 1174.5 849.209C1228.32 837.762 1278.54 942.979 1307.29 896.012C1333.69 852.894 1200.64 820.756 1238.09 786.805C1272.2 755.88 1324.92 870.422 1347.5 830.286C1364.08 800.818 1301.13 774.448 1321.8 747.694C1340.78 723.134 1387.24 770.574 1401.04 742.773C1415.53 713.574 1339.17 709.396 1348.41 678.139C1354.08 658.958 1368.42 653.032 1385.78 643.114Z" fill="#703E33" fill-opacity="0.1"/>
</svg>
