<svg width="1448" height="908" viewBox="0 0 1448 908" fill="none" xmlns="http://www.w3.org/2000/svg">
<path d="M47.6509 80.7049C12.9165 119.243 1.15095 194.705 0.0723334 215.5C-1.00628 236.295 9.75101 301.151 47.6509 311.205C81.4138 320.161 106.572 296.5 122.151 261.705C135.86 231.084 137.472 188.862 167.651 174.205C211.922 152.704 243.256 233.949 287.651 212.705C332.571 191.21 345.925 141.061 332.151 93.2049C312.342 24.3796 227.926 11.6938 156.651 18.7048C112.652 23.0327 77.2504 47.8643 47.6509 80.7049Z" fill="#355146"/>
<path d="M142.685 346.902C122.064 376.055 104.603 391.316 71.1849 403.902C50.6067 411.652 33.3616 400.322 15.6849 413.402C-20.1875 439.944 12.9432 489.948 40.6849 524.902C71.2566 563.421 111.59 593.518 156.685 573.902C186.272 561.031 206.441 541.143 207.685 508.902C208.625 484.534 180.977 476.258 182.185 451.902C184.307 409.113 252.185 427.902 272.685 389.902C285.664 365.843 287.439 342.915 272.685 319.902C253.194 289.5 214.71 285.208 182.185 300.902C160.859 311.191 157.185 326.402 142.685 346.902Z" fill="#5F4565"/>
<path d="M26.58 747.309C38.9589 719.721 54.6722 706.046 77.58 686.309C95.5103 670.86 108.216 660.87 128.58 648.809C166.465 626.371 199.734 598.485 237.08 621.809C251.882 631.053 260.052 639.431 266.08 655.809C275.394 681.111 252.832 696.376 251.58 723.309C249.981 757.716 274.451 776.897 266.08 810.309C252.784 863.382 207.804 886.511 153.58 893.809C111.196 899.513 77.5776 896.79 47.58 866.309C14.4789 832.675 7.26097 790.364 26.58 747.309Z" fill="#703E33"/>
<path d="M430.5 53.5002C451.818 36.986 473.914 52.5776 498.5 41.5002C522.218 30.8139 525.235 -3.08942 551 0.500186C569.819 3.12206 570.711 24.8232 588.5 31.5002C607.695 38.7049 620.773 34.8512 641 31.5002C663.976 27.6938 673.811 13.1528 697 11.0002C733.952 7.56998 766.993 10.2448 787 41.5002C795.893 55.3934 799.556 65.5136 799 82.0002C798.501 96.8111 798.545 108.708 787 118C773.614 128.774 759.331 123.343 743 118C727.553 112.947 724 107 709 94.0002C694 81.0004 672.626 66.8765 660 82.0002C650.99 92.7925 664.5 109.941 664.5 124C664.5 137.864 664.293 140.318 660 153.5C646.818 193.975 564.182 193.975 551 153.5C546.707 140.318 558.766 129.485 551 118C539.516 101.016 515.341 106.306 498.5 118C478.459 131.916 503.828 163.483 485 179C465.562 195.02 440.666 194.094 420.5 179C400.571 164.083 400.953 142.872 402 118C403.159 90.4864 408.73 70.3648 430.5 53.5002Z" fill="#703E33"/>
<path d="M1369.67 257.629C1397.69 239.75 1419.07 153.943 1375.08 87.2673C1322.61 7.76286 1252.98 36.7691 1161.71 64.0467C1078.45 88.9344 915.391 107.934 969.398 176.024C1000.76 215.569 1079.39 172.764 1113.01 210.418C1139.92 240.571 1096.87 281.193 1123.29 311.781C1163.94 358.835 1206.89 376.344 1266.4 358.341C1317.13 342.996 1307.49 297.299 1369.67 257.629Z" fill="#5F4565"/>
<path d="M851.5 116.5C828.436 101.67 851.887 69.9252 869 48.4999C893.947 17.2671 928.034 21.7565 968 22.4999C1005.33 23.1943 1079.46 16.6357 1060 48.4999C1046.67 70.3213 1021.54 59.2814 997.5 67.9999C954.706 83.5228 932.756 120.075 887.5 125C871.971 126.69 864.639 124.948 851.5 116.5Z" fill="#355146"/>
<path d="M1204.98 503.434C1233.16 452.184 1292.77 434.268 1346.93 456.183C1418.48 485.131 1348.15 575.145 1346.93 652.425C1345.82 722.822 1408.83 795.73 1346.93 829.086C1279.78 865.269 1070.4 848.168 1132.31 789.497C1172.24 751.647 1269.99 815.194 1270 760.124C1270.02 709.568 1139.75 751.588 1153.98 703.082C1166.94 658.899 1271.69 729.095 1270 683.075C1268.77 649.287 1201.31 659.643 1204.98 626.033C1208.35 595.179 1272.74 611.4 1270 580.484C1267.13 548.014 1199.81 584.3 1191.38 552.814C1186.21 533.493 1195.34 520.956 1204.98 503.434Z" fill="#703E33"/>
<path d="M498.641 745.496C526.025 702.552 427.173 684.682 377.703 696.764C360.467 700.974 345.239 700.743 336.676 716.286C326.742 734.316 339.952 749.099 349.207 767.484C368.36 805.531 403.243 855.771 437.884 830.978C457.529 816.917 445.543 792.158 461.006 773.595C472.747 759.502 488.779 760.962 498.641 745.496Z" fill="#5F4565"/>
<path d="M745.073 722.741C705.163 740.089 674.918 755.341 661.738 796.967C657.661 809.843 655.218 817.747 656.632 831.176C662.254 884.564 739.334 814.376 792.737 816.522C874.035 819.79 924.435 914.114 993.77 871.238C1033.99 846.365 1089.59 806.998 1060.36 769.805C1047.4 753.311 1032.99 749.993 1012.53 745.56C967.557 735.814 928.253 827.332 902.791 788.857C889.803 769.231 908.53 750.105 898.923 728.602C874.317 673.521 800.286 698.742 745.073 722.741Z" fill="#355146"/>
<path d="M544.916 807.317C530.253 828.394 506.113 844.854 518.35 867.416C528.315 885.788 548.072 892.731 568.251 887.091C598.681 878.586 565.901 835.454 580.098 807.317C588.499 790.666 621.799 783.15 609.176 769.398C604.18 763.955 599.213 762.925 591.944 761.528C566.732 756.68 559.545 786.289 544.916 807.317Z" fill="#5F4565"/>
</svg>
