<svg width="272" height="141" viewBox="0 0 272   141" fill="none" xmlns="http://www.w3.org/2000/svg">
<path d="M6 138.6C6 138.6 40.4982 50.9815 69.7693 50.9815C99.0405 50.9815 77.0871 101.049 107.404 101.049C137.72 101.049 176.4 3 176.4 3" stroke="url(#paint0_linear_57_4996)" stroke-width="12"/>
<defs>
<linearGradient id="paint0_linear_57_4996" x1="91.2" y1="3" x2="91.2" y2="183" gradientUnits="userSpaceOnUse">
<stop stop-color="#FF7F63"/>
<stop offset="1" stop-color="#FF7F63" stop-opacity="0"/>
</linearGradient>
</defs>
<path d="M0.96925 68.1997L14.3133 5.7997H37.0653C42.7613 5.7997 47.1133 7.0797 50.1213 9.63971C53.1933 12.1997 54.7292 15.8477 54.7292 20.5837C54.7292 27.7517 52.6173 33.3517 48.3933 37.3837C44.2333 41.4157 38.3453 43.4317 30.7293 43.4317H17.8653L12.5853 68.1997H0.96925ZM20.1693 32.8717H31.4013C39.0813 32.8717 42.9213 29.2877 42.9213 22.1197C42.9213 20.0717 42.2493 18.5997 40.9053 17.7037C39.6253 16.8077 37.4813 16.3597 34.4733 16.3597H23.6252L20.1693 32.8717ZM73.3608 69.3517C68.3048 69.3517 64.3368 68.1997 61.4568 65.8957C58.6408 63.5277 57.2328 60.2957 57.2328 56.1997C57.2328 45.8957 63.6008 40.7437 76.3368 40.7437H91.8888L92.0808 39.7837C92.2088 39.1437 92.3048 38.5357 92.3688 37.9597C92.4328 37.3837 92.4648 36.8717 92.4648 36.4237C92.4648 34.4397 91.8248 33.0317 90.5448 32.1997C89.3288 31.3677 87.2168 30.9517 84.2088 30.9517C79.0248 30.9517 73.6808 32.2317 68.1768 34.7917L64.9128 26.0557C71.5048 22.9197 78.6408 21.3517 86.3208 21.3517C98.1608 21.3517 104.081 25.6397 104.081 34.2157C104.081 35.0477 104.017 35.9117 103.889 36.8077C103.761 37.7037 103.601 38.6637 103.409 39.6877L97.3608 68.1997H89.0088L88.9128 64.5517C86.1608 66.1517 83.5688 67.3677 81.1368 68.1997C78.7048 68.9677 76.1128 69.3517 73.3608 69.3517ZM76.3368 59.7517C78.6408 59.7517 80.8168 59.4637 82.8648 58.8877C84.9128 58.2477 86.8328 57.4157 88.6248 56.3917L90.0648 49.2877H76.4328C71.2488 49.2877 68.6568 51.2717 68.6568 55.2397C68.6568 58.2477 71.2168 59.7517 76.3368 59.7517ZM115.224 68.1997L125.016 22.5037H133.752L133.56 28.7437C138.744 23.8157 144.664 21.3517 151.32 21.3517C156.248 21.3517 160.28 22.7277 163.416 25.4797L157.464 34.4077C155.352 32.6797 152.792 31.8157 149.784 31.8157C143.96 31.8157 138.136 34.7597 132.312 40.6477L126.552 68.1997H115.224ZM199.136 69.3517C188.64 69.3517 183.392 65.0317 183.392 56.3917C183.392 54.7277 183.584 52.9997 183.968 51.2077L192.704 10.3117H175.04L177.152 0.0397034H206.144L195.488 50.3437C195.296 51.2397 195.168 52.0077 195.104 52.6477C195.04 53.2877 195.008 53.7997 195.008 54.1837C195.008 55.9117 195.552 57.1597 196.64 57.9277C197.792 58.6317 199.424 58.9837 201.536 58.9837C205.056 58.9837 208.768 57.9277 212.672 55.8157L215.36 65.3197C210.368 68.0077 204.96 69.3517 199.136 69.3517ZM240.423 69.3517C235.367 69.3517 231.399 68.1997 228.519 65.8957C225.703 63.5277 224.295 60.2957 224.295 56.1997C224.295 45.8957 230.663 40.7437 243.399 40.7437H258.951L259.143 39.7837C259.271 39.1437 259.367 38.5357 259.431 37.9597C259.495 37.3837 259.527 36.8717 259.527 36.4237C259.527 34.4397 258.887 33.0317 257.607 32.1997C256.391 31.3677 254.279 30.9517 251.271 30.9517C246.087 30.9517 240.743 32.2317 235.239 34.7917L231.975 26.0557C238.567 22.9197 245.703 21.3517 253.383 21.3517C265.223 21.3517 271.143 25.6397 271.143 34.2157C271.143 35.0477 271.079 35.9117 270.951 36.8077C270.823 37.7037 270.663 38.6637 270.471 39.6877L264.423 68.1997H256.071L255.975 64.5517C253.223 66.1517 250.631 67.3677 248.199 68.1997C245.767 68.9677 243.175 69.3517 240.423 69.3517ZM243.399 59.7517C245.703 59.7517 247.879 59.4637 249.927 58.8877C251.975 58.2477 253.895 57.4157 255.687 56.3917L257.127 49.2877H243.495C238.311 49.2877 235.719 51.2717 235.719 55.2397C235.719 58.2477 238.279 59.7517 243.399 59.7517Z" fill="#E2E2E2"/>
</svg>
